<svg width="854" height="184" viewBox="0 0 854 184" fill="none" xmlns="http://www.w3.org/2000/svg">
<path d="M221.189 116.691C214.907 116.69 209.124 116.69 203.027 116.69C203.027 101.704 203.027 87.2966 203.027 72.5302C208.987 72.5302 214.848 72.5302 220.961 72.5302C221.104 74.9805 221.236 77.2625 221.392 79.9451C239.497 79.9451 257.53 79.9451 275.929 79.9451C276.113 77.5582 276.299 75.1504 276.506 72.4678C282.455 72.4678 288.217 72.4678 294.385 72.4678C294.385 86.9987 294.385 101.523 294.385 116.547C282.41 116.547 270.65 116.547 258.525 116.547C258.525 118.928 258.525 120.818 258.525 123.403C264.82 123.403 271.086 123.403 277.351 123.403C284.347 123.404 291.343 123.467 298.337 123.373C300.847 123.339 302.012 124.162 301.909 126.819C301.77 130.436 301.875 134.063 301.875 137.912C266.212 137.912 231.147 137.912 195.764 137.912C195.764 133.144 195.764 128.587 195.764 123.432C210.242 123.432 224.468 123.432 238.94 123.432C238.94 121.076 238.94 119.313 238.94 116.691C233.177 116.691 227.433 116.691 221.189 116.691ZM272.516 94.894C255.477 94.894 238.439 94.894 221.582 94.894C221.582 97.8236 221.582 99.8902 221.582 101.802C239.991 101.802 258.015 101.802 276.579 101.802C275.107 99.2517 278.696 95.3409 272.516 94.894Z" fill="white"/>
<path d="M763.835 104.585C767.685 103.483 771.191 101.883 774.734 101.795C785.207 101.537 795.741 101.297 806.163 102.139C817.622 103.065 824.046 111.289 824.193 123.425C824.347 136.092 818.195 144.118 806.877 146.017C798.238 147.466 798.235 147.466 798.468 156.083C798.49 156.897 798.59 157.708 798.69 158.982C809.053 160.017 818.792 158.318 828.939 153.494C828.939 158.817 829.156 163.411 828.797 167.96C828.7 169.196 827.073 170.935 825.796 171.343C821.23 172.803 816.53 174.709 811.85 174.796C791.873 175.171 771.885 174.956 751.479 174.956C751.479 169.991 751.479 164.971 751.479 159.447C760.572 159.447 769.507 159.447 778.767 159.447C778.767 155.046 778.767 151.138 778.767 146.765C766.896 146.31 756.619 142.943 754.482 129.414C752.965 119.817 754.155 110.658 763.835 104.585ZM796.336 116.499C790.339 116.533 784.328 116.338 778.347 116.678C773.955 116.927 771.974 119.878 772.069 124.177C772.163 128.465 774.121 131.216 778.67 131.28C785.667 131.378 792.668 131.355 799.666 131.282C803.7 131.24 805.677 128.801 806.142 125.036C806.813 119.598 803.954 116.905 796.336 116.499Z" fill="white"/>
<path d="M640.262 164.31C639.727 160.384 641.109 159.107 644.658 159.321C649.269 159.598 653.909 159.388 659.02 159.388C659.02 145.79 659.02 132.7 659.02 119.262C665.557 119.262 671.606 119.262 678.17 119.262C678.17 132.448 678.17 145.532 678.17 158.997C682.371 158.997 686.068 158.997 690.31 158.997C690.31 145.753 690.31 132.671 690.31 119.252C696.916 119.252 702.991 119.252 709.628 119.252C709.628 132.382 709.628 145.469 709.628 159.251C722.044 159.251 733.931 159.251 746.111 159.251C746.111 164.849 746.111 169.746 746.111 174.95C710.858 174.95 675.81 174.95 640.261 174.95C640.261 171.369 640.261 168.074 640.262 164.31Z" fill="white"/>
<path d="M516.959 179.918C487.366 179.919 458.247 179.919 428.699 179.919C428.699 165.596 428.699 151.583 428.699 137.255C458.981 137.255 489.191 137.255 520.436 137.255C518.91 146.39 517.426 155.275 515.898 164.417C517.773 164.783 519.315 165.084 521.263 165.465C521.263 169.173 521.097 172.816 521.315 176.437C521.498 179.493 520.037 180.22 516.959 179.918ZM446.029 161.429C445.787 163.818 446.469 165.223 449.269 165.033C451.916 164.853 454.585 164.998 457.244 164.998C470.676 164.998 484.107 164.998 497.816 164.998C498.67 160.581 499.448 156.564 500.287 152.226C482.092 152.226 464.267 152.226 446.028 152.226C446.028 155.221 446.028 157.851 446.029 161.429Z" fill="white"/>
<path d="M333.189 179.919C326.727 179.919 320.764 179.919 314.482 179.919C314.482 166.553 314.482 153.646 314.482 140.312C344.787 140.312 375.152 140.312 406.643 140.312C405.358 148.576 404.078 156.809 402.759 165.3C404.387 165.699 405.773 166.039 407.484 166.458C407.484 170.631 407.484 174.877 407.484 179.919C382.819 179.919 358.254 179.919 333.189 179.919ZM349.69 165.966C360.006 165.966 370.323 166.046 380.637 165.875C382.121 165.85 384.522 164.932 384.88 163.878C385.901 160.869 386.088 157.578 386.632 154.215C368.06 154.215 350.186 154.215 332.105 154.215C332.105 158.162 332.105 161.746 332.105 165.966C337.802 165.966 343.246 165.966 349.69 165.966Z" fill="white"/>
<path d="M400.277 75.9088C407.709 81.6588 408.677 89.2157 406.894 97.2666C405.133 105.212 399.152 108.946 391.642 110.482C388.891 111.045 386.036 111.341 383.228 111.343C366.426 111.36 349.609 111.659 332.825 111.073C317.311 110.532 309.027 99.0354 313.181 85.0341C315.582 76.9428 321.735 73.2315 329.422 72.2926C336.655 71.4093 344.017 71.3302 351.321 71.3477C363.955 71.378 376.602 71.4995 389.214 72.151C392.849 72.3388 396.383 74.4737 400.277 75.9088ZM387.022 95.3851C389.974 89.3514 388.177 86.1519 381.531 86.0375C373.392 85.8974 365.249 85.9803 357.108 85.9946C350.297 86.0066 343.483 85.9678 336.675 86.1324C333.385 86.2119 330.878 88.2328 331.531 91.4351C331.947 93.4681 334.431 95.2224 336.279 96.7472C337.004 97.3445 338.527 97.0321 339.686 97.0333C353.144 97.0476 366.602 97.0911 380.06 96.9921C382.163 96.9766 384.261 96.2893 387.022 95.3851Z" fill="white"/>
<path d="M427.379 128.956C425.089 128.956 423.273 128.956 421.092 128.956C421.092 110.723 421.092 92.8407 421.092 74.6051C426.618 74.6051 432.014 74.6051 438.109 74.6051C438.109 78.5363 438.109 82.5658 438.109 86.907C447.194 86.907 455.591 86.907 464.391 86.907C464.949 82.8025 465.501 78.7477 466.079 74.499C472.001 74.499 477.597 74.499 484.128 74.499C482.772 87.6121 481.435 100.545 480.053 113.907C482.352 114.159 484.413 114.384 486.8 114.645C486.8 119.301 486.8 123.839 486.8 128.956C467.021 128.956 447.437 128.956 427.379 128.956ZM438.319 111.399C439.282 112.376 440.207 114.151 441.213 114.198C447.012 114.468 452.837 114.473 458.637 114.206C459.777 114.154 461.589 112.662 461.804 111.579C462.397 108.593 462.309 105.471 462.498 102.271C454.202 102.271 446.496 102.271 438.313 102.271C438.313 105.218 438.313 107.837 438.319 111.399Z" fill="white"/>
<path d="M562.123 107.052C572.918 106.098 583.713 105.144 594.891 104.157C594.891 115.432 594.891 125.348 594.891 135.635C589.141 135.635 583.433 135.635 577.151 135.635C577.151 130.624 577.151 125.719 577.151 119.715C571.115 120.504 565.666 120.783 560.446 122.023C555.616 123.171 551.661 126.105 550.065 131.21C548.827 135.169 546.302 136.448 542.233 136.085C538.126 135.718 533.96 136.004 528.551 136.004C535.054 122.419 541.161 109.663 547.556 96.3041C541.601 96.3041 536.355 96.3041 530.709 96.3041C530.709 91.1946 530.709 86.4716 530.709 81.1686C538.197 81.1686 545.759 81.1686 553.824 81.1686C553.824 77.384 553.824 74.1425 553.824 70.5039C560.048 70.5039 565.778 70.5039 572.058 70.5039C572.058 73.5807 572.058 76.816 572.058 80.7293C580.275 80.7293 587.986 80.7293 595.979 80.7293C595.979 86.1311 595.979 90.8574 595.979 96.154C588.369 96.154 580.906 96.4922 573.494 96.0341C568.62 95.7329 565.558 97.0155 564.199 101.852C563.755 103.432 562.868 104.888 562.024 106.82C561.914 107.389 561.963 107.539 562.013 107.689C562.049 107.477 562.086 107.265 562.123 107.052Z" fill="white"/>
<path d="M646.271 86.8743C646.271 82.9175 646.271 79.4282 646.271 75.5078C677.695 75.5078 708.896 75.5078 740.842 75.5078C739.145 99.7846 737.445 124.092 735.721 148.759C729.23 148.759 723.016 148.759 716.092 148.759C717.382 129.707 718.668 110.697 720.004 90.9635C717.991 90.9635 716.221 90.9635 714.45 90.9635C693.291 90.9637 672.132 90.9522 650.972 90.9789C648.388 90.9822 645.698 91.3267 646.271 86.8743Z" fill="white"/>
<path d="M127.377 77.3097C139.803 76.6766 152.227 75.9955 164.658 75.4979C165.7 75.4562 167.284 76.3826 167.787 77.3092C174.289 89.2943 180.644 101.36 187.011 113.418C187.134 113.652 186.951 114.047 186.832 114.991C181.162 114.991 175.407 115.167 169.679 114.848C168.486 114.782 167.044 113.085 166.316 111.801C162.872 105.722 159.82 99.414 156.201 93.4467C155.247 91.873 152.778 90.317 150.992 90.3027C142.69 90.2362 134.367 90.4735 126.087 91.0824C120.661 91.4814 116.449 94.0743 114.209 99.5464C112.577 103.532 109.983 107.123 108.342 111.105C106.943 114.501 104.77 115.325 101.393 115.144C96.7637 114.895 92.1115 115.081 86.6953 115.081C87.424 113.201 87.8109 111.829 88.458 110.592C94.7059 98.6512 101.058 86.7648 107.227 74.7837C108.527 72.2596 110.015 71.0664 112.986 71.219C117.924 71.4726 122.883 71.2881 128.53 71.2881C127.784 73.2494 127.281 74.57 126.545 76.4646C126.667 77.1289 127.022 77.2193 127.377 77.3097Z" fill="white"/>
<path d="M599.189 163.385C610.65 163.385 621.611 163.385 632.872 163.385C632.872 168.985 632.872 174.073 632.872 179.551C602.31 179.551 571.76 179.551 540.861 179.551C540.861 167.21 540.861 154.972 540.861 142.396C546.721 142.396 552.455 142.396 558.79 142.396C558.79 149.206 558.79 155.955 558.79 163.385C572.482 163.385 585.586 163.385 599.189 163.385Z" fill="white"/>
<path d="M835.344 98.1105C835.344 89.478 835.344 81.3456 835.344 72.8369C841.426 72.8369 847.139 72.8369 853.14 72.8369C853.14 108.425 853.14 143.802 853.14 179.549C847.331 179.549 841.627 179.549 835.344 179.549C835.344 152.421 835.344 125.516 835.344 98.1105Z" fill="white"/>
<path d="M148.161 144.187C148.161 147.96 148.161 151.25 148.161 154.791C141.758 154.791 135.865 154.791 129.391 154.791C129.391 148.962 129.391 143.383 129.391 137.392C114.217 137.392 99.616 137.392 84.6445 137.392C84.6445 132.238 84.6445 127.514 84.6445 122.45C119.703 122.45 154.743 122.45 190.1 122.45C190.1 127.287 190.1 131.998 190.1 137.278C176.125 137.278 162.393 137.278 148.161 137.278C148.161 139.793 148.161 141.748 148.161 144.187Z" fill="white"/>
<path d="M130.19 164.172C148.631 164.172 166.573 164.172 184.856 164.172C184.856 169.435 184.856 174.329 184.856 179.575C154.144 179.575 123.465 179.575 92.4609 179.575C92.4609 168.905 92.4609 158.368 92.4609 147.54C98.3815 147.54 104.105 147.54 110.377 147.54C110.377 153.04 110.377 158.282 110.377 164.172C117.17 164.172 123.43 164.172 130.19 164.172Z" fill="white"/>
<path d="M294.055 159.119C294.055 166.098 294.055 172.579 294.055 179.485C288.07 179.485 282.369 179.485 276.085 179.485C276.085 173.185 276.085 166.955 276.085 160.256C251.296 160.256 227.075 160.256 202.523 160.256C202.523 155.065 202.523 150.35 202.523 145.335C232.854 145.335 263.078 145.335 294.055 145.335C294.055 149.768 294.055 154.194 294.055 159.119Z" fill="white"/>
<path d="M631.233 109.111C631.233 122.892 631.233 136.173 631.233 149.737C625.157 149.737 619.568 149.737 613.356 149.737C613.356 139.044 613.356 128.334 613.356 117.102C608.686 117.102 604.607 117.102 600.256 117.102C600.256 111.643 600.256 106.713 600.256 101.166C604.248 101.166 608.302 101.166 613.04 101.166C613.04 91.3915 613.04 82.1977 613.04 72.7441C619.314 72.7441 624.905 72.7441 631.233 72.7441C631.233 84.7892 631.233 96.7 631.233 109.111Z" fill="white"/>
<path d="M320.199 132.139C315.724 132.139 311.748 132.139 307.346 132.139C307.346 127.485 307.346 123.107 307.346 118.285C342.237 118.285 377.244 118.285 412.665 118.285C412.665 122.553 412.665 126.943 412.665 132.139C382.093 132.139 351.396 132.139 320.199 132.139Z" fill="white"/>
<path d="M520.088 120.094C520.088 124.227 520.088 127.864 520.088 131.908C514.042 131.908 508.35 131.908 502.162 131.908C502.162 123.918 502.162 116.003 502.162 107.431C496.49 107.431 491.278 107.431 485.748 107.431C485.748 101.873 485.748 96.9717 485.748 91.3891C491.067 91.3891 496.28 91.3891 502.033 91.3891C502.033 84.8212 502.033 78.9123 502.033 72.7412C508.177 72.7412 513.762 72.7412 520.088 72.7412C520.088 88.4659 520.088 104.032 520.088 120.094Z" fill="white"/>
<path d="M814.154 95.8433C793.55 95.8432 773.44 95.8432 753.002 95.8432C753.002 90.6956 753.002 86.129 753.002 81.1574C761.708 81.1574 770.148 81.1574 779.003 81.1574C779.148 77.8537 779.276 74.9254 779.422 71.5967C785.54 71.5967 791.579 71.5967 798.07 71.5967C798.07 74.6025 798.07 77.5275 798.07 80.9739C807.074 80.9739 815.655 80.9739 824.597 80.9739C824.597 86.0452 824.597 90.5995 824.597 95.8434C821.201 95.8434 817.925 95.8434 814.154 95.8433Z" fill="white"/>
<path d="M59.0762 60.0686C68.0726 56.6734 66.2777 48.576 67.1336 41.6191C68.4507 30.9131 69.5559 20.1713 71.2801 9.53046C71.8563 5.97446 71.8138 1.30968 77.0658 0C74.8238 17.9334 72.5966 35.7486 70.3774 53.5001C92.951 48.3572 114.695 43.4033 136.709 38.3878C136.709 41.2231 136.709 42.9015 136.709 44.6801C126.895 46.4318 116.864 47.7305 107.09 50.0933C95.3318 52.9356 83.7725 56.6157 72.1894 60.1375C70.9699 60.5083 70.1686 62.2546 68.7428 63.7806C67.3267 64.499 66.3412 64.7997 65.3557 65.1004C65.3037 64.3478 65.2517 63.5952 65.1443 62.1508C63.4569 61.0103 61.8248 60.5616 59.9136 60.1031C59.4483 60.0851 59.2622 60.0768 59.0762 60.0686Z" fill="white"/>
<path d="M65.3723 65.4458C66.3416 64.7998 67.3271 64.4992 68.6196 64.1494C67.4025 88.6321 65.6629 113.153 64.4454 137.7C63.8363 149.98 64.1994 162.306 64.0782 174.611C64.0512 177.358 63.8374 180.103 63.7095 182.849C63.0783 183.033 62.447 183.217 61.8158 183.401C60.9912 181.344 59.5453 179.314 59.4558 177.225C59.1579 170.272 59.1162 163.289 59.3925 156.334C60.2166 135.59 61.0457 114.843 62.2699 94.1201C62.8295 84.6487 64.32 75.2323 65.3723 65.4458Z" fill="white"/>
<path d="M58.7003 60.1079C59.2627 60.0769 59.4488 60.0851 60.0088 60.4726C61.2137 61.3706 62.0447 61.8895 62.8757 62.4083C52.5557 66.936 42.0934 71.1695 31.9561 76.0746C21.9453 80.9186 12.263 86.4417 2.07178 91.8609C1.43488 90.6086 0.817291 89.3943 0 87.7873C18.3247 75.8836 37.3272 65.9468 58.7003 60.1079Z" fill="white"/>
<path d="M63.1624 62.3406C62.0438 61.8896 61.2128 61.3707 60.2871 60.4824C61.8244 60.5617 63.4565 61.0104 65.143 61.7719C64.615 62.1474 64.0325 62.2101 63.1624 62.3406Z" fill="white"/>
<path d="M562.148 107.073C562.086 107.265 562.049 107.477 562.013 107.69C561.963 107.54 561.914 107.389 562.044 107.186C562.224 107.133 562.173 107.094 562.148 107.073Z" fill="white"/>
<path d="M127.179 77.1256C127.022 77.2192 126.667 77.1289 126.43 76.8287C126.692 76.7265 126.837 76.8341 127.179 77.1256Z" fill="white"/>
<path d="M57.7077 62.6391C57.744 62.6208 57.6715 62.6574 57.7077 62.6391Z" fill="white"/>
</svg>
