<svg width="357" height="244" viewBox="0 0 357 244" fill="none" xmlns="http://www.w3.org/2000/svg">
<path d="M184 57C189.28 57 194.56 57 200 57C200 59.31 200 61.62 200 64C214.52 64 229.04 64 244 64C244 61.69 244 59.38 244 57C248.95 57 253.9 57 259 57C259 68.88 259 80.76 259 93C249.1 93 239.2 93 229 93C229 94.98 229 96.96 229 99C240.88 99 252.76 99 265 99C265 102.96 265 106.92 265 111C236.62 111 208.24 111 179 111C179 107.04 179 103.08 179 99C190.55 99 202.1 99 214 99C214 97.02 214 95.04 214 93C204.1 93 194.2 93 184 93C184 81.12 184 69.24 184 57Z" fill="#070707"/>
<path d="M302.388 180.533C304.495 180.562 306.6 180.554 308.707 180.541C317.008 180.579 323.233 180.819 329.812 186.375C333.824 191.189 334.459 195.283 334.312 201.433C333.614 207.167 331.423 210.867 326.938 214.437C323.372 216.334 320.797 217.128 316.812 217.062C315.554 217.042 314.296 217.021 313 217C313 220.63 313 224.26 313 228C321.678 227.095 329.818 226.214 338 223C338 227.29 338 231.58 338 236C329.311 240.644 322.243 241.145 312.477 241.098C311.375 241.096 310.274 241.095 309.139 241.093C305.634 241.088 302.13 241.075 298.625 241.062C296.243 241.057 293.862 241.053 291.48 241.049C285.654 241.038 279.827 241.02 274 241C274 236.71 274 232.42 274 228C281.59 228 289.18 228 297 228C297 224.37 297 220.74 297 217C295.989 217.062 294.979 217.124 293.938 217.187C288.63 216.935 284.869 215.465 280.688 212.187C276.86 207.225 276.492 201.845 276.625 195.754C277.425 189.875 280.205 186.451 284.715 182.805C290.13 179.87 296.397 180.443 302.388 180.533Z" fill="#070707"/>
<path d="M14 210C38.09 210 62.18 210 87 210C85.875 225.75 85.875 225.75 84 233C85.32 233 86.64 233 88 233C88 236.63 88 240.26 88 244C63.58 244 39.16 244 14 244C14 232.78 14 221.56 14 210Z" fill="#060606"/>
<path d="M275 112C299.42 112 323.84 112 349 112C349 117.837 348.854 121.585 347.5 127C347.222 128.134 346.943 129.269 346.656 130.438C346.44 131.283 346.223 132.129 346 133C347.32 133 348.64 133 350 133C350 136.63 350 140.26 350 144C325.25 144 300.5 144 275 144C275 133.44 275 122.88 275 112Z" fill="#020202"/>
<path d="M290.08 56.8228C291.115 56.81 292.15 56.7972 293.216 56.7839C294.335 56.7765 295.454 56.7692 296.606 56.7616C297.759 56.7535 298.912 56.7454 300.101 56.7371C302.544 56.7233 304.988 56.7125 307.432 56.7047C311.156 56.6875 314.88 56.6436 318.604 56.5994C320.98 56.5893 323.355 56.5808 325.731 56.5741C326.84 56.5565 327.948 56.539 329.091 56.521C335.583 56.5391 340.617 57.1747 346.001 60.9998C349.528 64.6153 350.286 67.5301 350.501 72.4373C350.283 77.7813 349.325 80.8012 346.001 84.9998C340.934 88.234 335.991 89.107 330.062 89.1768C329.107 89.1897 328.152 89.2025 327.169 89.2157C326.148 89.2231 325.127 89.2305 324.075 89.2381C323.013 89.2462 321.952 89.2543 320.858 89.2626C318.615 89.2764 316.371 89.2871 314.128 89.295C311.84 89.3065 309.552 89.327 307.265 89.3565C303.951 89.3993 300.639 89.4154 297.325 89.4256C296.31 89.4431 295.295 89.4606 294.25 89.4787C287.988 89.4597 283.206 88.6346 278.001 84.9998C273.595 80.3681 272.639 76.4976 272.719 70.2811C273.306 65.5246 276.141 62.7761 279.563 59.6873C283.132 57.2165 285.847 56.8686 290.08 56.8228Z" fill="#050505"/>
<path d="M200 195C205.28 195 210.56 195 216 195C216 205.89 216 216.78 216 228C219.3 228 222.6 228 226 228C226 217.11 226 206.22 226 195C230.95 195 235.9 195 241 195C241 205.89 241 216.78 241 228C250.9 228 260.8 228 271 228C271 232.29 271 236.58 271 241C242.62 241 214.24 241 185 241C185 236.71 185 232.42 185 228C189.95 228 194.9 228 200 228C200 217.11 200 206.22 200 195Z" fill="#060606"/>
<path d="M7 159C11.95 159 16.9 159 22 159C22 162.3 22 165.6 22 169C28.93 169 35.86 169 43 169C43 165.7 43 162.4 43 159C47.95 159 52.9 159 58 159C57.5269 166.773 57.0523 174.545 56.5 182.312C56.4278 183.34 56.3556 184.367 56.2812 185.426C56 188 56 188 55 191C56.98 191 58.96 191 61 191C61 194.96 61 198.92 61 203C43.18 203 25.36 203 7 203C7 188.48 7 173.96 7 159Z" fill="#080808"/>
<path d="M115 156C119.95 156 124.9 156 130 156C130 158.64 130 161.28 130 164C136.27 164 142.54 164 149 164C149 168.29 149 172.58 149 177C141.08 177.33 133.16 177.66 125 178C124.01 180.31 123.02 182.62 122 185C122.99 184.67 123.98 184.34 125 184C126.773 183.918 128.549 183.893 130.324 183.902C131.251 183.905 132.177 183.907 133.132 183.91C134.305 183.919 135.478 183.928 136.688 183.938C142.287 183.968 142.287 183.968 148 184C148 192.25 148 200.5 148 209C143.38 209 138.76 209 134 209C134 204.71 134 200.42 134 196C124.049 196.408 124.049 196.408 115.25 200.25C112.557 203.336 112.557 203.336 110 209C105.05 209 100.1 209 95 209C95.8883 204.559 96.9835 201.616 98.9414 197.605C99.2285 197.013 99.5157 196.421 99.8115 195.811C100.723 193.934 101.643 192.061 102.562 190.188C103.185 188.91 103.807 187.632 104.428 186.354C105.945 183.232 107.473 180.116 109 177C104.71 177 100.42 177 96 177C96 172.71 96 168.42 96 164C102.27 164 108.54 164 115 164C115 161.36 115 158.72 115 156Z" fill="#070707"/>
<path d="M190 160C215.08 160 240.16 160 266 160C266 166.938 265.921 173.659 265.379 180.543C265.283 181.823 265.283 181.823 265.184 183.129C265.049 184.913 264.912 186.697 264.773 188.48C264.562 191.192 264.358 193.903 264.154 196.615C264.021 198.362 263.888 200.109 263.754 201.855C263.693 202.655 263.633 203.454 263.571 204.277C263.184 209.208 262.648 214.097 262 219C257.05 219 252.1 219 247 219C246.694 203.306 246.911 187.443 250 172C230.2 172 210.4 172 190 172C190 168.04 190 164.08 190 160Z" fill="#030303"/>
<path d="M108 57C113.28 57 118.56 57 124 57C123.67 58.32 123.34 59.64 123 61C123.99 60.67 124.98 60.34 126 60C128.284 59.9162 130.57 59.8927 132.855 59.9023C133.517 59.9038 134.179 59.9052 134.86 59.9066C136.969 59.9122 139.078 59.9248 141.188 59.9375C142.619 59.9425 144.051 59.9471 145.482 59.9512C148.988 59.9622 152.494 59.9794 156 60C156.343 60.6298 156.685 61.2596 157.038 61.9084C158.608 64.7935 160.179 67.678 161.75 70.5625C162.289 71.5531 162.828 72.5438 163.383 73.5645C164.176 75.0195 164.176 75.0195 164.984 76.5039C165.757 77.9234 165.757 77.9234 166.545 79.3716C167.788 81.6169 169.076 83.8238 170.391 86.0273C172 89 172 89 172 92C166.72 92 161.44 92 156 92C152.7 85.73 149.4 79.46 146 73C141.958 72.9189 137.917 72.8595 133.875 72.8125C132.733 72.7874 131.591 72.7622 130.414 72.7363C122.168 72.4701 122.168 72.4701 115 76C113.222 78.5996 111.913 81.319 110.625 84.1875C110.271 84.9371 109.916 85.6867 109.551 86.459C108.684 88.2982 107.84 90.1481 107 92C101.72 92 96.44 92 91 92C91.845 87.7752 92.5623 85.5942 94.582 81.9805C95.1022 81.0401 95.6223 80.0997 96.1582 79.1309C96.7041 78.1596 97.25 77.1882 97.8125 76.1875C98.8828 74.2651 99.9519 72.3419 101.02 70.418C101.783 69.0439 101.783 69.0439 102.561 67.6421C104.469 64.1382 106.248 60.5844 108 57Z" fill="#060606"/>
<path d="M89 98C117.38 98 145.76 98 175 98C175 101.96 175 105.92 175 110C163.45 110 151.9 110 140 110C140 114.62 140 119.24 140 124C135.05 124 130.1 124 125 124C125 119.38 125 114.76 125 110C113.12 110 101.24 110 89 110C89 106.04 89 102.08 89 98Z" fill="#040404"/>
<path d="M104 214C108.95 214 113.9 214 119 214C119 219.61 119 225.22 119 231C138.8 231 158.6 231 179 231C179 235.29 179 239.58 179 244C154.25 244 129.5 244 104 244C104 234.1 104 224.2 104 214Z" fill="#050505"/>
<path d="M343 158C347.62 158 352.24 158 357 158C357 186.38 357 214.76 357 244C352.38 244 347.76 244 343 244C343 215.62 343 187.24 343 158Z" fill="#010101"/>
<path d="M184 116C208.42 116 232.84 116 258 116C258 125.24 258 134.48 258 144C253.38 144 248.76 144 244 144C244 138.72 244 133.44 244 128C224.2 128 204.4 128 184 128C184 124.04 184 120.08 184 116Z" fill="#040404"/>
<path d="M95 118C99.95 118 104.9 118 110 118C110 122.62 110 127.24 110 132C129.8 132 149.6 132 170 132C170 135.96 170 139.92 170 144C145.25 144 120.5 144 95 144C95 135.42 95 126.84 95 118Z" fill="#020202"/>
<path d="M269 94C297.38 94 325.76 94 355 94C355 97.96 355 101.92 355 106C326.62 106 298.24 106 269 106C269 102.04 269 98.08 269 94Z" fill="#0A0A0A"/>
<path d="M63 0C63.0424 2.33295 63.0409 4.66703 63 7C62.67 7.33 62.34 7.66 62 8C61.7253 9.62297 61.5083 11.2558 61.3164 12.8906C61.1943 13.9051 61.0723 14.9196 60.9465 15.9648C60.7564 17.591 60.7564 17.591 60.5625 19.25C59.5248 27.8626 58.4209 36.4411 57 45C57.923 44.6971 58.8459 44.3941 59.7969 44.082C95.0713 32.682 95.0713 32.682 111 33C111 34.32 111 35.64 111 37C109.742 37.2423 108.484 37.4847 107.188 37.7344C92.3745 40.6201 77.8471 44.03 63.4055 48.4255C58.2008 50 58.2008 50 56 50C55.9091 51.8285 55.9091 51.8285 55.8164 53.6938C55.7318 55.3923 55.6472 57.0907 55.5625 58.7891C55.5174 59.6942 55.4723 60.5993 55.4258 61.5319C55.164 66.7674 54.8969 72.0025 54.6227 77.2374C53.3731 101.153 52.5068 125.057 52 149C51.01 149 50.02 149 49 149C47.8156 146.631 47.8708 145.209 47.8672 142.566C47.8652 141.624 47.8632 140.682 47.8611 139.712C47.8657 138.672 47.8703 137.633 47.875 136.562C47.8777 135.479 47.8803 134.395 47.8831 133.279C47.9373 123.412 48.1666 113.55 48.4375 103.688C48.4571 102.946 48.4766 102.204 48.4968 101.44C49.1393 77.5821 49.1393 77.5821 51 72C51.2044 69.3717 51.372 66.7569 51.5 64.125C51.7193 59.6668 52.0654 55.3732 53 51C38.5188 56.6274 24.7675 62.981 11.2056 70.5278C9.63815 71.3996 9.63815 71.3996 8.03906 72.2891C7.11303 72.8119 6.187 73.3348 5.23291 73.8735C3 75 3 75 1 75C0.67 74.01 0.34 73.02 0 72C6.59887 67.141 13.2686 63.0411 20.625 59.4375C21.5756 58.9672 22.5262 58.4968 23.5056 58.0122C32.9384 53.4183 42.6419 48.9645 53 47C53.0501 46.2805 53.1002 45.5609 53.1519 44.8196C55.6873 8.90663 55.6873 8.90663 60 1C62 0 62 0 63 0Z" fill="#2A2A2A"/>
<path d="M163 158C167.62 158 172.24 158 177 158C177 178.46 177 198.92 177 220C172.38 220 167.76 220 163 220C163 211.42 163 202.84 163 194C159.37 194 155.74 194 152 194C152 189.38 152 184.76 152 180C155.63 180 159.26 180 163 180C163 172.74 163 165.48 163 158Z" fill="#040404"/>
<path d="M73 158C77.62 158 82.24 158 87 158C87 173.84 87 189.68 87 206C82.38 206 77.76 206 73 206C73 199.07 73 192.14 73 185C68.71 185 64.42 185 60 185C60 181.04 60 177.08 60 173C64.29 173 68.58 173 73 173C73 168.05 73 163.1 73 158Z" fill="#010101"/>
<path d="M297 156C302.28 156 307.56 156 313 156C313 158.64 313 161.28 313 164C319.93 164 326.86 164 334 164C334 167.96 334 171.92 334 176C314.86 176 295.72 176 276 176C276 172.04 276 168.08 276 164C282.93 164 289.86 164 297 164C297 161.36 297 158.72 297 156Z" fill="#0C0C0C"/>
<path d="M289 123C303.52 123 318.04 123 333 123C333 130 333 130 332 133C317.81 133 303.62 133 289 133C289 129.7 289 126.4 289 123Z" fill="#F6F6F6"/>
<path d="M28 222C42.19 222 56.38 222 71 222C70.67 225.3 70.34 228.6 70 232C56.14 232 42.28 232 28 232C28 228.7 28 225.4 28 222Z" fill="#FCFCFC"/>
<path d="M297.401 67.7219C298.716 67.7279 298.716 67.7279 300.059 67.7341C300.959 67.7322 301.859 67.7303 302.786 67.7283C304.692 67.727 306.598 67.7307 308.503 67.739C311.422 67.7497 314.341 67.7391 317.26 67.7263C319.109 67.7276 320.959 67.7302 322.809 67.7341C324.121 67.7281 324.121 67.7281 325.46 67.7219C326.274 67.7282 327.089 67.7345 327.927 67.741C328.643 67.7426 329.359 67.7442 330.096 67.7458C332 67.9998 332 67.9998 335 69.9998C335.312 72.4998 335.312 72.4998 335 74.9998C333 76.9998 333 76.9998 331.134 77.247C330.377 77.2456 329.621 77.2442 328.842 77.2427C327.984 77.2458 327.127 77.2488 326.243 77.252C325.316 77.2448 324.389 77.2376 323.434 77.2302C322.484 77.2298 321.535 77.2293 320.557 77.2288C318.549 77.2258 316.541 77.2179 314.532 77.2056C311.447 77.1873 308.361 77.1851 305.275 77.1853C303.328 77.1804 301.381 77.1746 299.434 77.1677C298.504 77.1666 297.575 77.1655 296.618 77.1644C295.764 77.158 294.909 77.1516 294.029 77.145C293.273 77.1412 292.518 77.1374 291.739 77.1335C290 76.9998 290 76.9998 289 75.9998C288.812 73.0623 288.812 73.0623 289 69.9998C291.685 67.315 293.751 67.7502 297.401 67.7219Z" fill="#F2F2F2"/>
<path d="M55.0002 48C55.9902 48.66 56.9802 49.32 58.0002 50C57.3402 50 56.6802 50 56.0002 50C55.9397 51.219 55.8791 52.4379 55.8167 53.6938C55.7321 55.3923 55.6474 57.0907 55.5627 58.7891C55.4951 60.1468 55.4951 60.1468 55.426 61.5319C55.1643 66.7674 54.8972 72.0025 54.623 77.2374C53.3734 101.153 52.507 125.057 52.0002 149C51.0102 149 50.0202 149 49.0002 149C47.8158 146.631 47.8711 145.209 47.8674 142.566C47.8654 141.624 47.8634 140.682 47.8613 139.712C47.8659 138.672 47.8705 137.633 47.8752 136.562C47.8779 135.479 47.8806 134.395 47.8833 133.279C47.9376 123.412 48.1669 113.55 48.4377 103.688C48.4573 102.946 48.4769 102.204 48.497 101.44C49.1395 77.5821 49.1395 77.5821 51.0002 72C51.2267 68.5425 51.3944 65.0913 51.5178 61.6289C51.6089 59.7479 51.7971 57.8722 52.0002 56C52.6602 55.67 53.3202 55.34 54.0002 55C54.4075 52.6784 54.7446 50.3431 55.0002 48Z" fill="#424242"/>
<path d="M199 75C213.85 75 228.7 75 244 75C244 77.31 244 79.62 244 82C229.15 82 214.3 82 199 82C199 79.69 199 77.38 199 75Z" fill="#DADADA"/>
<path d="M301.85 192.678C302.869 192.681 303.888 192.684 304.938 192.688C305.953 192.672 306.968 192.655 308.014 192.639C309.475 192.638 309.475 192.638 310.965 192.637C312.305 192.632 312.305 192.632 313.672 192.628C316.466 193.075 317.352 193.73 319 196C319.64 201.119 319.64 201.119 317.791 203.665C315.411 205.439 313.915 205.373 310.965 205.363C309.991 205.363 309.017 205.362 308.014 205.362C306.999 205.345 305.983 205.329 304.938 205.313C303.409 205.318 303.409 205.318 301.85 205.322C294.267 205.267 294.267 205.267 292 203C291.734 201.125 291.734 201.125 291.75 199C291.745 198.299 291.74 197.598 291.734 196.875C292.493 191.521 297.686 192.708 301.85 192.678Z" fill="#F7F7F7"/>
<path d="M22 181C28.27 181 34.54 181 41 181C41 184.3 41 187.6 41 191C34.73 191 28.46 191 22 191C22 187.7 22 184.4 22 181Z" fill="#F5F5F5"/>
<path d="M35 55C35 55.66 35 56.32 35 57C33.68 57.33 32.36 57.66 31 58C31 58.66 31 59.32 31 60C27.0518 62.1415 23.1008 64.2776 19.147 66.4087C17.8018 67.1348 16.4574 67.8623 15.1138 68.5913C13.1847 69.6377 11.2528 70.6788 9.32031 71.7188C8.4171 72.2109 8.4171 72.2109 7.49564 72.713C3.22774 75 3.22774 75 1 75C0.67 74.01 0.34 73.02 0 72C6.328 66.9709 13.1233 63.2065 20.3125 59.5625C21.1842 59.1134 22.056 58.6644 22.9541 58.2017C23.7904 57.7858 24.6267 57.3699 25.4883 56.9414C26.2363 56.567 26.9844 56.1926 27.7551 55.8069C30.2966 54.8934 32.3194 54.8534 35 55Z" fill="#181818"/>
<path d="M51.0008 76C51.3308 76 51.6608 76 52.0008 76C52.1172 87.828 51.9549 99.617 51.5008 111.438C51.0328 123.633 50.8877 135.797 51.0008 148C50.0108 147.67 49.0208 147.34 48.0008 147C47.8759 133.306 47.9762 119.621 48.3192 105.931C48.3566 104.409 48.391 102.887 48.4224 101.365C48.6045 92.7555 49.0772 84.4337 51.0008 76Z" fill="#252525"/>
<path d="M53 47C53 48.32 53 49.64 53 51C49.9025 52.3698 46.7961 53.7181 43.6875 55.0625C42.3659 55.6474 42.3659 55.6474 41.0176 56.2441C40.17 56.6083 39.3225 56.9725 38.4492 57.3477C37.6689 57.688 36.8886 58.0284 36.0847 58.3792C34 59 34 59 31 58C32.32 57.67 33.64 57.34 35 57C35 56.34 35 55.68 35 55C34.01 54.67 33.02 54.34 32 54C34.6039 53.0202 37.2081 52.0411 39.8125 51.0625C40.5505 50.7847 41.2885 50.5069 42.0488 50.2207C42.761 49.9532 43.4732 49.6857 44.207 49.4102C44.8616 49.164 45.5162 48.9179 46.1907 48.6643C50.7236 47 50.7236 47 53 47Z" fill="#343434"/>
<path d="M63 0C63.0424 2.33295 63.0409 4.66703 63 7C62.67 7.33 62.34 7.66 62 8C61.7253 9.62297 61.5083 11.2558 61.3164 12.8906C61.1943 13.9051 61.0723 14.9196 60.9465 15.9648C60.8198 17.0489 60.6931 18.133 60.5625 19.25C59.5248 27.8626 58.4209 36.4411 57 45C56.67 45 56.34 45 56 45C56.551 33.6763 57.44 22.4256 58.7539 11.1636C58.923 9.67729 59.0757 8.18909 59.2148 6.69971C59.4083 4.79165 59.696 2.8936 60 1C62 0 62 0 63 0Z" fill="#4F4F4F"/>
<path d="M58.9998 2C59.6598 2 60.3198 2 60.9998 2C60.0098 10.58 59.0198 19.16 57.9998 28C57.0098 28.33 56.0198 28.66 54.9998 29C54.6383 19.78 55.8912 10.6989 58.9998 2Z" fill="#303030"/>
<path d="M83 39C80.415 42.8774 78.6203 42.976 74.1875 44.1875C72.9642 44.5316 71.7409 44.8758 70.4805 45.2304C67.4912 45.8914 65.0372 46.1677 62 46C63.6 42.7999 66.4025 42.5489 69.6875 41.375C71.5186 40.7059 71.5186 40.7059 73.3867 40.0234C76.8094 39.0539 79.4711 38.794 83 39Z" fill="#050505"/>
<path d="M35 55.0001C35 55.6601 35 56.3201 35 57.0001C33.68 57.3301 32.36 57.6601 31 58.0001C31 58.6601 31 59.3201 31 60.0001C29.7316 60.5062 28.4602 61.0048 27.1875 61.5001C26.126 61.9177 26.126 61.9177 25.043 62.3438C23 63.0001 23 63.0001 20 63.0001C20 62.0101 20 61.0201 20 60.0001C21.5558 59.1542 23.12 58.3239 24.6875 57.5001C25.5576 57.036 26.4277 56.572 27.3242 56.0938C30.1179 54.9519 32.0163 54.785 35 55.0001Z" fill="#181818"/>
<path d="M69 43.0001C67.02 43.6601 65.04 44.3201 63 45.0001C64.485 44.7835 64.485 44.7835 66 44.5626C69.9941 43.9908 73.9953 43.4919 78 43.0001C74.6382 45.2413 72.0602 45.8348 68.125 46.6876C66.3036 47.0956 66.3036 47.0956 64.4453 47.5118C61.2113 47.9701 59.1097 47.8809 56 47.0001C59.3151 42.9483 63.99 41.0731 69 43.0001Z" fill="#292929"/>
<path d="M111 33.0001C111 34.3201 111 35.6401 111 37.0001C107.7 37.0001 104.4 37.0001 101 37.0001C101 36.0101 101 35.0201 101 34.0001C104.406 33.2217 107.508 32.9003 111 33.0001Z" fill="#1A1A1A"/>
<path d="M20 61C20 61.66 20 62.32 20 63C22.31 62.34 24.62 61.68 27 61C24.6166 63.6744 22.1296 65.1516 18.9375 66.75C17.6207 67.4229 17.6207 67.4229 16.2773 68.1094C15.5258 68.4033 14.7743 68.6972 14 69C13.34 68.67 12.68 68.34 12 68C13.65 66.68 15.3 65.36 17 64C16.67 63.34 16.34 62.68 16 62C18 61 18 61 20 61Z" fill="#3B3B3B"/>
<path d="M55 48C55.99 48.66 56.98 49.32 58 50C57.34 50 56.68 50 56 50C55.67 56.6 55.34 63.2 55 70C54.67 70 54.34 70 54 70C53.9394 69.3245 53.8788 68.6491 53.8164 67.9531C53.7326 67.0611 53.6488 66.1691 53.5625 65.25C53.4813 64.3683 53.4001 63.4866 53.3164 62.5781C53.0376 60.3065 52.6121 58.2015 52 56C52.66 55.67 53.32 55.34 54 55C54.4073 52.6784 54.7444 50.3431 55 48Z" fill="#545454"/>
<path d="M125 177C132.92 177 140.84 177 149 177C149 177.33 149 177.66 149 178C148.349 178.025 147.699 178.05 147.028 178.076C144.081 178.192 141.134 178.315 138.188 178.438C136.651 178.496 136.651 178.496 135.084 178.557C134.101 178.599 133.118 178.64 132.105 178.684C131.199 178.72 130.294 178.757 129.36 178.795C126.85 178.921 126.85 178.921 124 180C124.33 179.01 124.66 178.02 125 177Z" fill="#F0F0F0"/>
<path d="M3.94531 69.8047C5.96354 69.8698 7.98177 69.9349 10 70C7.47043 73.0917 4.77545 73.9093 1 75C0.67 74.01 0.34 73.02 0 72C2 70 2 70 3.94531 69.8047Z" fill="#2A2A2A"/>
<path d="M28 58.9998C25.6049 61.8991 23.6875 62.5015 20 62.9998C20 62.0098 20 61.0198 20 59.9998C23.0675 58.1374 24.5975 57.7846 28 58.9998Z" fill="#0B0B0B"/>
<path d="M80 38C82.31 38 84.62 38 87 38C87 38.99 87 39.98 87 41C82.5692 43.0923 82.5692 43.0923 79.6875 42.625C79.1306 42.4188 78.5738 42.2125 78 42C79.32 41.34 80.64 40.68 82 40C81.34 39.34 80.68 38.68 80 38Z" fill="#313131"/>
<path d="M83 39.0002C81 42.0002 81 42.0002 78.375 42.6877C77.5913 42.7909 76.8075 42.894 76 43.0002C76 42.3402 76 41.6802 76 41.0002C75.01 40.6702 74.02 40.3402 73 40.0002C76.3802 38.9602 79.478 38.9202 83 39.0002Z" fill="#0E0E0E"/>
<path d="M85 37C88.63 37.66 92.26 38.32 96 39C96 39.33 96 39.66 96 40C91.545 40.495 91.545 40.495 87 41C87 40.01 87 39.02 87 38C86.34 37.67 85.68 37.34 85 37Z" fill="#444444"/>
<path d="M53 47C53 48.32 53 49.64 53 51C51.35 51.33 49.7 51.66 48 52C48 50.68 48 49.36 48 48C51 47 51 47 53 47Z" fill="#434343"/>
<path d="M46 54.0002C41.545 55.4852 41.545 55.4852 37 57.0002C38 54.0002 38 54.0002 39.8125 52.6877C42 52.0002 42 52.0002 46 54.0002Z" fill="#585858"/>
<path d="M45 49C46.32 49 47.64 49 49 49C48.67 50.32 48.34 51.64 48 53C46.68 53 45.36 53 44 53C44.33 51.68 44.66 50.36 45 49Z" fill="#262626"/>
</svg>
